<?xml version="1.0" encoding="UTF-8" standalone="no"?>
<svg
   width="16"
   height="16"
   version="1.0"
   id="svg10"
   sodipodi:docname="org.fedoraproject.AnacondaInstaller-symbolic.svg"
   inkscape:version="1.4 (e7c3feb100, 2024-10-09)"
   xmlns:inkscape="http://www.inkscape.org/namespaces/inkscape"
   xmlns:sodipodi="http://sodipodi.sourceforge.net/DTD/sodipodi-0.dtd"
   xmlns="http://www.w3.org/2000/svg"
   xmlns:svg="http://www.w3.org/2000/svg"
   xmlns:rdf="http://www.w3.org/1999/02/22-rdf-syntax-ns#"
   xmlns:cc="http://creativecommons.org/ns#"
   xmlns:dc="http://purl.org/dc/elements/1.1/">
  <metadata
     id="metadata16">
    <rdf:RDF>
      <cc:Work
         rdf:about="">
        <dc:format>image/svg+xml</dc:format>
        <dc:type
           rdf:resource="http://purl.org/dc/dcmitype/StillImage" />
        <dc:title />
      </cc:Work>
    </rdf:RDF>
  </metadata>
  <defs
     id="defs14" />
  <sodipodi:namedview
     pagecolor="#ffffff"
     bordercolor="#666666"
     borderopacity="1"
     objecttolerance="10"
     gridtolerance="10"
     guidetolerance="10"
     inkscape:pageopacity="0"
     inkscape:pageshadow="2"
     inkscape:window-width="1495"
     inkscape:window-height="1381"
     id="namedview12"
     showgrid="false"
     inkscape:zoom="45.343222"
     inkscape:cx="9.5714416"
     inkscape:cy="8.0056067"
     inkscape:window-x="0"
     inkscape:window-y="0"
     inkscape:window-maximized="0"
     inkscape:current-layer="svg10"
     inkscape:showpageshadow="2"
     inkscape:pagecheckerboard="0"
     inkscape:deskcolor="#d1d1d1" />
  <g
     transform="matrix(.2 0 0 .2 -25.6 -111.1)"
     stroke-width="5"
     color="#000"
     id="g8">
    <rect
       ry="4"
       rx="4"
       y="625.5"
       x="138"
       height="8"
       width="59.946"
       style="marker:none"
       overflow="visible"
       opacity=".257"
       id="rect4" />
    <rect
       ry="4"
       rx="4"
       y="625.5"
       x="138"
       height="8"
       width="38.125"
       style="marker:none"
       overflow="visible"
       id="rect6" />
  </g>
  <g
     id="g1"
     transform="translate(-12.762269,-1.4877286)">
    <path
       sodipodi:nodetypes="ssssssssssssssssss"
       style="fill:#000000;fill-opacity:1;stroke:none;stroke-width:0.252628"
       d="m 26.48139,12.765807 c 0.168632,3e-6 0.304427,-0.194761 0.304427,-0.436605 V 9.2543265 c 0,-0.2418439 -0.135795,-0.4363554 -0.304427,-0.4363554 h -3.04385 c -0.168637,0 -0.304443,0.1945115 -0.304443,0.4363554 v 3.0748755 c 0,0.241844 0.135806,0.436605 0.304443,0.436605 z m 0,-4.3051034 c 0.168632,0 0.304427,-0.1947641 0.304427,-0.4366081 v -0.169241 c 0,-0.2418465 -0.135795,-0.4363555 -0.304427,-0.4363555 h -3.04385 c -0.168637,0 -0.304443,0.194509 -0.304443,0.4363555 v 0.169241 c 0,0.241844 0.135806,0.4366081 0.304443,0.4366081 z"
       id="path79089"
       inkscape:connector-curvature="0" />
    <path
       sodipodi:nodetypes="ssssssssssssssssssss"
       style="fill:#000000;fill-opacity:1;stroke:none;stroke-width:0.252628"
       d="m 22.470907,12.765807 c 0.168632,3e-6 0.297341,-0.194865 0.304427,-0.436605 L 22.87722,8.853281 C 22.880958,8.7256656 22.034342,8.2918642 21.881345,7.7310437 21.728348,7.1702206 21.730159,5.098544 21.689152,5.098544 h -1.480343 c -0.04101,0 -0.0392,2.0716766 -0.192198,2.6324997 -0.152997,0.5608205 -0.999624,0.9946244 -0.995882,1.1222373 l 0.101885,3.475921 c 0.0071,0.24174 0.135805,0.436605 0.304443,0.436605 z M 21.635411,4.7556991 c 0.07606,0 0.137303,-0.087844 0.137303,-0.1969216 V 4.361856 c 0,-0.10908 -0.06125,-0.1968079 -0.137303,-0.1968079 h -1.372863 c -0.07606,0 -0.137314,0.087728 -0.137314,0.1968079 v 0.1969215 c 0,0.1090775 0.06125,0.1969216 0.137314,0.1969216 z"
       id="path137534"
       inkscape:connector-curvature="0" />
    <path
       sodipodi:nodetypes="ssssssssssssscccccccsssss"
       style="fill:#000000;fill-opacity:1;stroke:none;stroke-width:0.252628"
       d="m 18.193056,12.765807 c 0.168633,3e-6 0.295657,-0.194918 0.304428,-0.436605 l 0.101885,-2.8075109 c 0.0093,-0.2551677 -1.039339,-1.717044 -1.128007,-1.717044 h -1.600463 c -0.08867,0 -1.137279,1.4618763 -1.12802,1.717044 l 0.101885,2.8075109 c 0.0088,0.241687 0.135805,0.436605 0.304443,0.436605 z M 17.41326,7.4448305 c 0.08223,0 0.148445,-0.094971 0.148445,-0.2129003 V 7.0190274 c 0,-0.1179296 -0.08173,-0.2608467 -0.148445,-0.2127765 H 17.227727 17.042194 L 16.856661,5.3357421 h -0.185533 -0.185533 l -0.185533,1.4705088 h -0.185531 -0.185533 c -0.08223,0 -0.148455,0.094847 -0.148455,0.2127765 v 0.2129028 c 0,0.1179296 0.06622,0.2129003 0.148455,0.2129003 z"
       id="path138347"
       inkscape:connector-curvature="0" />
    <g
       aria-label="E"
       id="text126745"
       style="font-size:7.95789px;line-height:0%;letter-spacing:0px;word-spacing:0px;fill:#ffffff;stroke-width:0.282222"
       transform="matrix(0.2526287,0,0,0.2526287,-26.77729,71.456272)">
      <path
         d="m 171.09412,-237.8228 v -1.24342 h 4.00059 v -2.29764 h -4.00059 v -1.10827 h 4.55472 v -2.40576 h -7.69032 v 9.46085 h 7.86603 v -2.40576 z"
         style="font-weight:900;font-size:13.5155px;line-height:125%;font-family:Montserrat;-inkscape-font-specification:'Montserrat Heavy'"
         id="path2880" />
    </g>
    <g
       aria-label="L"
       id="text139573"
       style="font-size:7.95789px;line-height:0%;letter-spacing:0px;word-spacing:0px;fill:#ffffff;stroke-width:0.282222"
       transform="matrix(0.2526287,0,0,0.2526287,-26.77729,71.456272)">
      <path
         d="m 185.95018,-235.41704 h 7.46055 v -2.47333 h -4.27089 v -6.98752 h -3.18966 z"
         style="font-weight:900;font-size:13.5155px;line-height:125%;font-family:Montserrat;-inkscape-font-specification:'Montserrat Heavy'"
         id="path2901" />
    </g>
    <g
       aria-label="N"
       id="text140543"
       style="font-size:7.95789px;line-height:0%;letter-spacing:0px;word-spacing:0px;fill:#ffffff;stroke-width:0.282222"
       transform="matrix(0.2526287,0,0,0.2526287,-26.77729,71.456272)">
      <path
         d="m 206.6853,-244.87789 v 4.29793 l -3.59513,-4.29793 h -2.622 v 9.46085 h 3.10856 v -4.29793 l 3.59513,4.29793 h 2.622 v -9.46085 z"
         style="font-weight:900;font-size:13.5155px;line-height:125%;font-family:Montserrat;-inkscape-font-specification:'Montserrat Heavy'"
         id="path2904" />
    </g>
    <g
       aria-label="~"
       id="text140941"
       style="font-size:5.1678px;line-height:0%;letter-spacing:0px;word-spacing:0px;fill:#ffffff;stroke-width:0.282222"
       transform="matrix(0.2526287,0,0,0.2526287,-26.77729,71.456272)">
      <path
         d="m 206.11353,-250.43059 c 0.86891,0 1.48329,-0.7197 1.50084,-1.93969 h -1.21121 c -0.0175,0.35108 -0.19309,0.55294 -0.44762,0.55294 -0.39495,0 -0.78114,-0.65826 -1.57983,-0.65826 -0.86891,0 -1.48329,0.7197 -1.50085,1.93969 h 1.21121 c 0.0176,-0.35108 0.19309,-0.55295 0.44762,-0.55295 0.39496,0 0.78114,0.65827 1.57984,0.65827 z"
         style="font-weight:900;font-size:8.77687px;line-height:125%;font-family:Montserrat;-inkscape-font-specification:'Montserrat Heavy'"
         id="path2944" />
    </g>
  </g>
</svg>
