<?xml version="1.0" encoding="UTF-8" standalone="no"?>
<svg
   version="1.0"
   x="0.0000000"
   y="0.0000000"
   width="252.32"
   height="252.32"
   viewBox="0 0 252.32 252.32"
   xml:space="preserve"
   id="translucent-fedora-logo-with-radial-gradient"
   inkscape:version="1.4 (e7c3feb100, 2024-10-09)"
   sodipodi:docname="fedora-blacklogo-sprite.svg"
   inkscape:export-filename="/home/duffy/Repositories/fedora-logos/pixmaps/fedora-logo-sprite.png"
   inkscape:export-xdpi="96"
   inkscape:export-ydpi="96"
   xmlns:inkscape="http://www.inkscape.org/namespaces/inkscape"
   xmlns:sodipodi="http://sodipodi.sourceforge.net/DTD/sodipodi-0.dtd"
   xmlns="http://www.w3.org/2000/svg"
   xmlns:svg="http://www.w3.org/2000/svg"
   xmlns:rdf="http://www.w3.org/1999/02/22-rdf-syntax-ns#"
   xmlns:cc="http://creativecommons.org/ns#"
   xmlns:dc="http://purl.org/dc/elements/1.1/"><title
     id="title36">Fedora Logomark</title><metadata
     id="metadata16"><rdf:RDF><cc:Work
         rdf:about=""><dc:format>image/svg+xml</dc:format><dc:type
           rdf:resource="http://purl.org/dc/dcmitype/StillImage" /><dc:title>Fedora Logomark</dc:title><dc:date>17 March 2021</dc:date><dc:creator><cc:Agent><dc:title /></cc:Agent></dc:creator><dc:rights><cc:Agent><dc:title>Trademark of Red Hat, Inc., All Rights Reserved</dc:title></cc:Agent></dc:rights><dc:contributor><cc:Agent><dc:title>Máirín Duffy &lt;duffy@redhat.com&gt;</dc:title></cc:Agent></dc:contributor></cc:Work></rdf:RDF></metadata><defs
     id="defs14" /><sodipodi:namedview
     pagecolor="#ffffff"
     bordercolor="#666666"
     borderopacity="1"
     objecttolerance="10"
     gridtolerance="10"
     guidetolerance="10"
     inkscape:pageopacity="0"
     inkscape:pageshadow="2"
     inkscape:window-width="1537"
     inkscape:window-height="1117"
     id="namedview12"
     showgrid="false"
     inkscape:snap-global="true"
     inkscape:snap-bbox="true"
     inkscape:snap-page="true"
     inkscape:zoom="1.8706404"
     inkscape:cx="139.52441"
     inkscape:cy="98.362037"
     inkscape:window-x="0"
     inkscape:window-y="0"
     inkscape:window-maximized="0"
     inkscape:current-layer="translucent-fedora-logo-with-radial-gradient"
     inkscape:document-rotation="0"
     inkscape:showpageshadow="2"
     inkscape:pagecheckerboard="true"
     inkscape:deskcolor="#d1d1d1" /><g
     aria-label="E"
     id="text126745"
     style="font-size:7.95789px;line-height:0%;letter-spacing:0px;word-spacing:0px;fill:#ffffff;stroke-width:0.282222"
     transform="matrix(5.2925535,0,0,5.2925535,-869.83333,1445.8138)" /><g
     aria-label="L"
     id="text139573"
     style="font-size:7.95789px;line-height:0%;letter-spacing:0px;word-spacing:0px;fill:#ffffff;stroke-width:0.282222"
     transform="matrix(5.2925535,0,0,5.2925535,-869.83333,1445.8138)" /><g
     aria-label="N"
     id="text140543"
     style="font-size:7.95789px;line-height:0%;letter-spacing:0px;word-spacing:0px;fill:#ffffff;stroke-width:0.282222"
     transform="matrix(5.2925535,0,0,5.2925535,-869.83333,1445.8138)" /><g
     id="g3"><path
       id="path79089"
       style="fill:#1a1a1a;fill-opacity:1;stroke:none;stroke-width:5.29255"
       d="M 182.16406 104.22656 C 178.63113 104.22656 175.78516 108.30247 175.78516 113.36914 L 175.78516 116.91406 C 175.78516 121.98068 178.63113 126.06055 182.16406 126.06055 L 245.93164 126.06055 C 249.46447 126.06055 252.31055 121.98068 252.31055 116.91406 L 252.31055 113.36914 C 252.31055 108.30247 249.46447 104.22656 245.93164 104.22656 L 182.16406 104.22656 z M 211.83594 109.57227 C 216.06305 109.57227 218.10697 113.05664 220.19727 113.05664 C 221.54438 113.05664 222.47379 111.98897 222.56641 110.13086 L 228.97656 110.13086 C 228.88368 116.58772 225.63196 120.39648 221.0332 120.39648 C 216.80604 120.39648 214.76222 116.91211 212.67188 116.91211 C 211.32476 116.91211 210.39588 117.98173 210.30273 119.83984 L 203.89258 119.83984 C 203.98552 113.38298 207.23718 109.57227 211.83594 109.57227 z M 182.16406 133.54492 C 178.63113 133.54492 175.78516 137.62088 175.78516 142.6875 L 175.78516 207.10547 C 175.78516 212.17208 178.63113 216.25195 182.16406 216.25195 L 245.93164 216.25195 C 249.46447 216.25201 252.31055 212.17208 252.31055 207.10547 L 252.31055 142.6875 C 252.31055 137.62088 249.46447 133.54492 245.93164 133.54492 L 182.16406 133.54492 z M 191.1543 149.78516 L 205.0332 149.78516 L 224.06055 172.53125 L 224.06055 149.78516 L 240.51172 149.78516 L 240.51172 199.85742 L 226.63477 199.85742 L 207.60742 177.10938 L 207.60742 199.85742 L 191.1543 199.85742 L 191.1543 149.78516 z " /><path
       id="path137534"
       style="fill:#1a1a1a;fill-opacity:1;stroke:none;stroke-width:5.29255"
       d="M 115.64844 36.068359 C 114.05496 36.068359 112.77148 37.906188 112.77148 40.191406 L 112.77148 44.316406 C 112.77148 46.601572 114.05496 48.441406 115.64844 48.441406 L 144.41016 48.441406 C 146.00354 48.441406 147.28516 46.601572 147.28516 44.316406 L 147.28516 40.191406 C 147.28516 37.906188 146.00354 36.068359 144.41016 36.068359 L 115.64844 36.068359 z M 114.52148 55.625 C 113.66234 55.625 113.70137 99.026185 110.49609 110.77539 C 107.29081 122.52454 89.55443 131.61168 89.632812 134.28516 L 91.765625 207.10547 C 91.914346 212.16991 94.611592 216.25195 98.144531 216.25195 L 161.91211 216.25195 C 165.44494 216.25201 168.14256 212.16991 168.29102 207.10547 L 170.42578 134.28516 C 170.50408 131.61163 152.76778 122.52454 149.5625 110.77539 C 146.35723 99.026185 146.39424 55.625 145.53516 55.625 L 114.52148 55.625 z M 114.31836 149.78516 L 131.19922 149.78516 L 131.19922 186.76562 L 153.80273 186.76562 L 153.80273 199.85742 L 114.31836 199.85742 L 114.31836 149.78516 z " /><path
       id="path138347"
       style="fill:#1a1a1a;fill-opacity:1;stroke:none;stroke-width:5.29255"
       d="M 36.521484 60.59375 L 32.634766 91.400391 L 28.748047 91.400391 L 24.861328 91.400391 C 23.138549 91.400391 21.75 93.386806 21.75 95.857422 L 21.75 100.31836 C 21.75 102.78897 23.138549 104.7793 24.861328 104.7793 L 55.955078 104.7793 C 57.677752 104.7793 59.066406 102.78897 59.066406 100.31836 L 59.066406 95.857422 C 59.066406 93.386806 57.352736 90.393324 55.955078 91.400391 L 52.068359 91.400391 L 48.181641 91.400391 L 44.294922 60.59375 L 40.408203 60.59375 L 36.521484 60.59375 z M 23.642578 112.31641 C 21.784945 112.31641 -0.18225333 142.94332 0.01171875 148.28906 L 2.1464844 207.10547 C 2.330136 212.1688 4.9904992 216.25195 8.5234375 216.25195 L 72.292969 216.25195 C 75.825802 216.25201 78.486164 212.1688 78.669922 207.10547 L 80.804688 148.28906 C 80.998923 142.94332 59.029455 112.31641 57.171875 112.31641 L 23.642578 112.31641 z M 19.095703 149.78516 L 59.796875 149.78516 L 59.796875 162.51758 L 35.691406 162.51758 L 35.691406 168.38281 L 56.865234 168.38281 L 56.865234 180.54297 L 35.691406 180.54297 L 35.691406 187.12305 L 60.726562 187.12305 L 60.726562 199.85742 L 19.095703 199.85742 L 19.095703 149.78516 z " /><g
       aria-label="~"
       id="text140941"
       style="font-size:5.1678px;line-height:0%;letter-spacing:0px;word-spacing:0px;fill:#ffffff;stroke-width:0.282222"
       transform="matrix(5.2925535,0,0,5.2925535,-869.83333,1445.8138)" /></g></svg>
