<?xml version="1.0" encoding="UTF-8" standalone="no"?>
<svg
   width="128"
   height="128"
   version="1.0"
   id="svg38"
   sodipodi:docname="org.fedoraproject.AnacondaInstaller.svg"
   inkscape:version="1.4.3 (0d15f75042, 2025-12-25)"
   xmlns:inkscape="http://www.inkscape.org/namespaces/inkscape"
   xmlns:sodipodi="http://sodipodi.sourceforge.net/DTD/sodipodi-0.dtd"
   xmlns:xlink="http://www.w3.org/1999/xlink"
   xmlns="http://www.w3.org/2000/svg"
   xmlns:svg="http://www.w3.org/2000/svg"
   xmlns:rdf="http://www.w3.org/1999/02/22-rdf-syntax-ns#"
   xmlns:cc="http://creativecommons.org/ns#"
   xmlns:dc="http://purl.org/dc/elements/1.1/">
  <metadata
     id="metadata42">
    <rdf:RDF>
      <cc:Work
         rdf:about="">
        <dc:format>image/svg+xml</dc:format>
        <dc:type
           rdf:resource="http://purl.org/dc/dcmitype/StillImage" />
      </cc:Work>
    </rdf:RDF>
  </metadata>
  <sodipodi:namedview
     pagecolor="#ffffff"
     bordercolor="#666666"
     borderopacity="1"
     objecttolerance="10"
     gridtolerance="10"
     guidetolerance="10"
     inkscape:pageopacity="0"
     inkscape:pageshadow="2"
     inkscape:window-width="1760"
     inkscape:window-height="1200"
     id="namedview40"
     showgrid="false"
     inkscape:zoom="8.015625"
     inkscape:cx="57.013645"
     inkscape:cy="64.062378"
     inkscape:window-x="0"
     inkscape:window-y="0"
     inkscape:window-maximized="0"
     inkscape:current-layer="g36"
     inkscape:showpageshadow="2"
     inkscape:pagecheckerboard="0"
     inkscape:deskcolor="#d1d1d1" />
  <defs
     id="defs16">
    <linearGradient
       xlink:href="#a"
       id="b"
       gradientUnits="userSpaceOnUse"
       gradientTransform="matrix(.23214 0 0 .32895 -8.567 435.827)"
       x1="88.596"
       y1="-449.394"
       x2="536.596"
       y2="-449.394" />
    <linearGradient
       id="a">
      <stop
         offset="0"
         stop-color="#acabae"
         id="stop3" />
      <stop
         offset=".038"
         stop-color="#f7f7f7"
         id="stop5" />
      <stop
         offset=".077"
         stop-color="#deddda"
         id="stop7" />
      <stop
         offset=".923"
         stop-color="#b0afad"
         id="stop9" />
      <stop
         offset=".962"
         stop-color="#c0bfbc"
         id="stop11" />
      <stop
         offset="1"
         stop-color="#77767b"
         id="stop13" />
    </linearGradient>
    <clipPath
       clipPathUnits="userSpaceOnUse"
       id="clipPath137191">
      <path
         sodipodi:nodetypes="ssssssssssssssssss"
         style="opacity:1;fill:#79db32;fill-opacity:0.999948;stroke:none;stroke-width:0.999998"
         d="m 180.65551,-242.90241 c 0.66749,0 1.20504,-0.77094 1.20504,-1.72825 v -8.46736 c 0,-0.95729 -0.53755,-1.72725 -1.20504,-1.72725 h -12.04873 c -0.66752,0 -1.2051,0.76996 -1.2051,1.72725 v 8.46736 c 0,0.95731 0.53758,1.72825 1.2051,1.72825 z m 0,-13.33706 c 0.66749,0 1.20504,-0.77094 1.20504,-1.72826 v -1.72826 c 0,-0.95731 -0.53755,-1.72725 -1.20504,-1.72725 h -12.04873 c -0.66752,0 -1.2051,0.76994 -1.2051,1.72725 v 1.72826 c 0,0.95732 0.53758,1.72826 1.2051,1.72826 z"
         id="path137193"
         inkscape:connector-curvature="0" />
    </clipPath>
  </defs>
  <g
     transform="translate(0 -172)"
     id="g36">
    <rect
       ry="8"
       rx="8"
       y="188"
       x="12"
       height="100"
       width="104"
       style="marker:none"
       fill="url(#b)"
       id="rect18" />
    <rect
       style="marker:none"
       width="104"
       height="100"
       x="12"
       y="184"
       rx="8"
       ry="8"
       fill="#fff"
       id="rect20" />
    <g
       transform="translate(-104 -365.5)"
       color="#000"
       id="g26">
      <rect
         ry="4"
         rx="4"
         y="625.5"
         x="128"
         height="8"
         width="80"
         style="marker:none"
         overflow="visible"
         fill="#e1dedb"
         id="rect22" />
      <rect
         ry="4"
         rx="4"
         y="625.5"
         x="128"
         height="8"
         width="48.125"
         style="marker:none"
         overflow="visible"
         fill="#3584e4"
         id="rect24" />
    </g>
    <g
       id="g1">
      <path
         sodipodi:nodetypes="ssssssssssssssssss"
         style="fill:#79db32;fill-opacity:1;stroke:none;stroke-width:1.52659"
         d="m 98.547345,248.80712 c 1.019017,1e-5 1.839605,-1.17692 1.839605,-2.63834 V 227.5878 c 0,-1.46142 -0.820588,-2.63682 -1.839605,-2.63682 H 80.15385 c -1.019047,0 -1.839699,1.1754 -1.839699,2.63682 v 18.58098 c 0,1.46142 0.820652,2.63834 1.839699,2.63834 z m 0,-26.01505 c 1.019017,0 1.839605,-1.17693 1.839605,-2.63835 v -1.0227 c 0,-1.46144 -0.820588,-2.63683 -1.839605,-2.63683 H 80.15385 c -1.019047,0 -1.839699,1.17539 -1.839699,2.63683 v 1.0227 c 0,1.46142 0.820652,2.63835 1.839699,2.63835 z"
         id="path79089"
         inkscape:connector-curvature="0" />
      <path
         sodipodi:nodetypes="ssssssssssssssssssss"
         style="fill:#db3279;fill-opacity:1;stroke:none;stroke-width:1.52659"
         d="m 74.312642,248.80712 c 1.019017,1e-5 1.796786,-1.17754 1.839607,-2.63834 l 0.615676,-21.00443 c 0.02259,-0.77116 -5.093376,-3.39255 -6.017912,-6.7815 -0.924536,-3.38896 -0.913591,-15.90777 -1.161388,-15.90777 h -8.945477 c -0.247812,0 -0.236882,12.51881 -1.161418,15.90777 -0.924536,3.38895 -6.040566,6.01036 -6.017957,6.7815 l 0.615675,21.00443 c 0.0429,1.4608 0.820652,2.63834 1.839699,2.63834 z m -5.048769,-48.4038 c 0.459597,0 0.829704,-0.53082 0.829704,-1.18996 v -1.18997 c 0,-0.65915 -0.370107,-1.18928 -0.829704,-1.18928 h -8.295988 c -0.459627,0 -0.829765,0.53013 -0.829765,1.18928 v 1.18997 c 0,0.65914 0.370138,1.18996 0.829765,1.18996 z"
         id="path137534"
         inkscape:connector-curvature="0" />
      <path
         sodipodi:nodetypes="ssssssssssssscccccccsssss"
         style="fill:#e59728;fill-opacity:1;stroke:none;stroke-width:1.52659"
         d="m 48.462283,248.80712 c 1.019017,1e-5 1.786604,-1.17786 1.839607,-2.63834 l 0.615676,-16.96534 c 0.05603,-1.54193 -6.280563,-10.37582 -6.816367,-10.37582 h -9.671342 c -0.53582,0 -6.872393,8.83389 -6.816443,10.37582 l 0.615675,16.96534 c 0.05297,1.46048 0.820652,2.63834 1.839699,2.63834 z m -4.712185,-32.15381 c 0.496891,0 0.897027,-0.57389 0.897027,-1.28652 v -1.28654 c 0,-0.71263 -0.493884,-1.57625 -0.897027,-1.28577 h -1.121147 -1.121146 l -1.121146,-8.88605 h -1.121146 -1.121147 l -1.121146,8.88605 h -1.121131 -1.121146 c -0.496922,0 -0.897088,0.57314 -0.897088,1.28577 v 1.28654 c 0,0.71263 0.400166,1.28652 0.897088,1.28652 z"
         id="path138347"
         inkscape:connector-curvature="0" />
      <g
         aria-label="E"
         id="text126745"
         style="font-size:7.95789px;line-height:0%;letter-spacing:0px;word-spacing:0px;fill:#ffffff;stroke-width:0.282222"
         transform="matrix(1.5265945,0,0,1.5265945,-223.28627,603.46413)">
        <path
           d="m 171.09412,-237.8228 v -1.24342 h 4.00059 v -2.29764 h -4.00059 v -1.10827 h 4.55472 v -2.40576 h -7.69032 v 9.46085 h 7.86603 v -2.40576 z"
           style="font-weight:900;font-size:13.5155px;line-height:125%;font-family:Montserrat;-inkscape-font-specification:'Montserrat Heavy'"
           id="path2880" />
      </g>
      <g
         aria-label="L"
         id="text139573"
         style="font-size:7.95789px;line-height:0%;letter-spacing:0px;word-spacing:0px;fill:#ffffff;stroke-width:0.282222"
         transform="matrix(1.5265945,0,0,1.5265945,-223.28627,603.46413)">
        <path
           d="m 185.95018,-235.41704 h 7.46055 v -2.47333 h -4.27089 v -6.98752 h -3.18966 z"
           style="font-weight:900;font-size:13.5155px;line-height:125%;font-family:Montserrat;-inkscape-font-specification:'Montserrat Heavy'"
           id="path2901" />
      </g>
      <g
         aria-label="N"
         id="text140543"
         style="font-size:7.95789px;line-height:0%;letter-spacing:0px;word-spacing:0px;fill:#ffffff;stroke-width:0.282222"
         transform="matrix(1.5265945,0,0,1.5265945,-223.28627,603.46413)">
        <path
           d="m 206.6853,-244.87789 v 4.29793 l -3.59513,-4.29793 h -2.622 v 9.46085 h 3.10856 v -4.29793 l 3.59513,4.29793 h 2.622 v -9.46085 z"
           style="font-weight:900;font-size:13.5155px;line-height:125%;font-family:Montserrat;-inkscape-font-specification:'Montserrat Heavy'"
           id="path2904" />
      </g>
      <g
         aria-label="~"
         id="text140941"
         style="font-size:5.1678px;line-height:0%;letter-spacing:0px;word-spacing:0px;fill:#ffffff;stroke-width:0.282222"
         transform="matrix(1.5265945,0,0,1.5265945,-223.28627,603.46413)">
        <path
           d="m 206.11353,-250.43059 c 0.86891,0 1.48329,-0.7197 1.50084,-1.93969 h -1.21121 c -0.0175,0.35108 -0.19309,0.55294 -0.44762,0.55294 -0.39495,0 -0.78114,-0.65826 -1.57983,-0.65826 -0.86891,0 -1.48329,0.7197 -1.50085,1.93969 h 1.21121 c 0.0176,-0.35108 0.19309,-0.55295 0.44762,-0.55295 0.39496,0 0.78114,0.65827 1.57984,0.65827 z"
           style="font-weight:900;font-size:8.77687px;line-height:125%;font-family:Montserrat;-inkscape-font-specification:'Montserrat Heavy'"
           id="path2944" />
      </g>
    </g>
  </g>
</svg>
