<?xml version="1.0" encoding="UTF-8" standalone="no"?>
<svg
   width="48"
   height="48"
   id="svg2942"
   sodipodi:version="0.32"
   inkscape:version="1.4.3 (0d15f75042, 2025-12-25)"
   version="1.0"
   sodipodi:docname="xfce4_xicon1.svg"
   inkscape:output_extension="org.inkscape.output.svg.inkscape"
   xmlns:inkscape="http://www.inkscape.org/namespaces/inkscape"
   xmlns:sodipodi="http://sodipodi.sourceforge.net/DTD/sodipodi-0.dtd"
   xmlns="http://www.w3.org/2000/svg"
   xmlns:svg="http://www.w3.org/2000/svg"
   xmlns:rdf="http://www.w3.org/1999/02/22-rdf-syntax-ns#"
   xmlns:cc="http://creativecommons.org/ns#"
   xmlns:dc="http://purl.org/dc/elements/1.1/">
  <defs
     id="defs2944" />
  <sodipodi:namedview
     id="base"
     pagecolor="#ffffff"
     bordercolor="#666666"
     borderopacity="1.0"
     gridtolerance="10000"
     guidetolerance="10"
     objecttolerance="10"
     inkscape:pageopacity="0.0"
     inkscape:pageshadow="2"
     inkscape:zoom="10.556063"
     inkscape:cx="25.814548"
     inkscape:cy="26.382942"
     inkscape:document-units="px"
     inkscape:current-layer="layer1"
     width="128px"
     height="128px"
     inkscape:window-width="1595"
     inkscape:window-height="956"
     inkscape:window-x="0"
     inkscape:window-y="0"
     showgrid="false"
     inkscape:document-rotation="0"
     inkscape:window-maximized="0"
     inkscape:showpageshadow="2"
     inkscape:pagecheckerboard="0"
     inkscape:deskcolor="#d1d1d1" />
  <metadata
     id="metadata2947">
    <rdf:RDF>
      <cc:Work
         rdf:about="">
        <dc:format>image/svg+xml</dc:format>
        <dc:type
           rdf:resource="http://purl.org/dc/dcmitype/StillImage" />
        <dc:title />
        <dc:date />
        <dc:creator>
          <cc:Agent>
            <dc:title />
          </cc:Agent>
        </dc:creator>
        <dc:rights>
          <cc:Agent>
            <dc:title />
          </cc:Agent>
        </dc:rights>
        <dc:publisher>
          <cc:Agent>
            <dc:title />
          </cc:Agent>
        </dc:publisher>
        <dc:identifier />
        <dc:source />
        <dc:relation />
        <dc:language />
        <dc:subject>
          <rdf:Bag />
        </dc:subject>
        <dc:coverage />
        <dc:description />
        <dc:contributor>
          <cc:Agent>
            <dc:title />
          </cc:Agent>
        </dc:contributor>
        <cc:license
           rdf:resource="" />
      </cc:Work>
      <cc:Work
         rdf:about="">
        <dc:format>image/svg+xml</dc:format>
        <dc:type
           rdf:resource="http://purl.org/dc/dcmitype/StillImage" />
      </cc:Work>
    </rdf:RDF>
  </metadata>
  <g
     inkscape:label="Layer 1"
     inkscape:groupmode="layer"
     id="layer1">
    <g
       id="g1">
      <path
         sodipodi:nodetypes="ssssssssssssssssss"
         style="fill:#79db32;fill-opacity:1;stroke:none;stroke-width:0.818111"
         d="M 42.514143,37.926328 C 43.06024,37.926337 43.5,37.295613 43.5,36.512427 v -9.957663 c 0,-0.783187 -0.43976,-1.413092 -0.985857,-1.413092 h -9.857191 c -0.546114,0 -0.985907,0.629905 -0.985907,1.413092 v 9.957663 c 0,0.783186 0.439793,1.413901 0.985907,1.413901 z m 0,-13.941629 c 0.546097,0 0.985857,-0.630724 0.985857,-1.41391 v -0.54807 c 0,-0.783194 -0.43976,-1.413091 -0.985857,-1.413091 h -9.857191 c -0.546114,0 -0.985907,0.629897 -0.985907,1.413091 v 0.54807 c 0,0.783186 0.439793,1.41391 0.985907,1.41391 z"
         id="path79089"
         inkscape:connector-curvature="0" />
      <path
         sodipodi:nodetypes="ssssssssssssssssssss"
         style="fill:#db3279;fill-opacity:1;stroke:none;stroke-width:0.818111"
         d="m 29.526611,37.926328 c 0.546098,9e-6 0.962909,-0.63105 0.985857,-1.413901 L 30.842413,25.25602 c 0.01211,-0.41327 -2.729573,-1.81809 -3.225037,-3.634249 -0.495465,-1.816167 -0.489599,-8.525076 -0.622395,-8.525076 h -4.793939 c -0.132804,0 -0.126946,6.708909 -0.622411,8.525076 -0.495465,1.816159 -3.237178,3.220988 -3.225062,3.634249 l 0.329945,11.256407 c 0.02299,0.782851 0.439792,1.413901 0.985906,1.413901 z m -2.705667,-25.9399 c 0.246301,0 0.444644,-0.284474 0.444644,-0.63771 v -0.63771 c 0,-0.353244 -0.198343,-0.637342 -0.444644,-0.637342 h -4.445873 c -0.246317,0 -0.444676,0.284098 -0.444676,0.637342 v 0.63771 c 0,0.353236 0.198359,0.63771 0.444676,0.63771 z"
         id="path137534"
         inkscape:connector-curvature="0" />
      <path
         sodipodi:nodetypes="ssssssssssssscccccccsssss"
         style="fill:#e59728;fill-opacity:1;stroke:none;stroke-width:0.818111"
         d="m 15.673239,37.926328 c 0.546098,9e-6 0.957453,-0.631222 0.985857,-1.413901 l 0.329945,-9.091831 c 0.03002,-0.826334 -3.365793,-5.560468 -3.652934,-5.560468 H 8.1531727 c -0.287149,0 -3.682959,4.734134 -3.6529752,5.560468 l 0.3299445,9.091831 c 0.028388,0.782679 0.4397923,1.413901 0.9859064,1.413901 z M 13.147949,20.6949 c 0.266287,0 0.480723,-0.307553 0.480723,-0.689456 V 19.31598 c 0,-0.381902 -0.264676,-0.844724 -0.480723,-0.689054 H 12.54712 11.94629 l -0.600829,-4.762089 h -0.600829 -0.60083 L 9.5429727,18.626926 H 8.9421514 8.341322 c -0.2663035,0 -0.4807552,0.307152 -0.4807552,0.689054 v 0.689464 c 0,0.381903 0.2144517,0.689456 0.4807552,0.689456 z"
         id="path138347"
         inkscape:connector-curvature="0" />
      <g
         aria-label="E"
         id="text126745"
         style="font-size:7.95789px;line-height:0%;letter-spacing:0px;word-spacing:0px;fill:#ffffff;stroke-width:0.282222"
         transform="matrix(0.81811171,0,0,0.81811171,-129.95854,227.98928)">
        <path
           d="m 171.09412,-237.8228 v -1.24342 h 4.00059 v -2.29764 h -4.00059 v -1.10827 h 4.55472 v -2.40576 h -7.69032 v 9.46085 h 7.86603 v -2.40576 z"
           style="font-weight:900;font-size:13.5155px;line-height:125%;font-family:Montserrat;-inkscape-font-specification:'Montserrat Heavy'"
           id="path2880" />
      </g>
      <g
         aria-label="L"
         id="text139573"
         style="font-size:7.95789px;line-height:0%;letter-spacing:0px;word-spacing:0px;fill:#ffffff;stroke-width:0.282222"
         transform="matrix(0.81811171,0,0,0.81811171,-129.95854,227.98928)">
        <path
           d="m 185.95018,-235.41704 h 7.46055 v -2.47333 h -4.27089 v -6.98752 h -3.18966 z"
           style="font-weight:900;font-size:13.5155px;line-height:125%;font-family:Montserrat;-inkscape-font-specification:'Montserrat Heavy'"
           id="path2901" />
      </g>
      <g
         aria-label="N"
         id="text140543"
         style="font-size:7.95789px;line-height:0%;letter-spacing:0px;word-spacing:0px;fill:#ffffff;stroke-width:0.282222"
         transform="matrix(0.81811171,0,0,0.81811171,-129.95854,227.98928)">
        <path
           d="m 206.6853,-244.87789 v 4.29793 l -3.59513,-4.29793 h -2.622 v 9.46085 h 3.10856 v -4.29793 l 3.59513,4.29793 h 2.622 v -9.46085 z"
           style="font-weight:900;font-size:13.5155px;line-height:125%;font-family:Montserrat;-inkscape-font-specification:'Montserrat Heavy'"
           id="path2904" />
      </g>
      <g
         aria-label="~"
         id="text140941"
         style="font-size:5.1678px;line-height:0%;letter-spacing:0px;word-spacing:0px;fill:#ffffff;stroke-width:0.282222"
         transform="matrix(0.81811171,0,0,0.81811171,-129.95854,227.98928)">
        <path
           d="m 206.11353,-250.43059 c 0.86891,0 1.48329,-0.7197 1.50084,-1.93969 h -1.21121 c -0.0175,0.35108 -0.19309,0.55294 -0.44762,0.55294 -0.39495,0 -0.78114,-0.65826 -1.57983,-0.65826 -0.86891,0 -1.48329,0.7197 -1.50085,1.93969 h 1.21121 c 0.0176,-0.35108 0.19309,-0.55295 0.44762,-0.55295 0.39496,0 0.78114,0.65827 1.57984,0.65827 z"
           style="font-weight:900;font-size:8.77687px;line-height:125%;font-family:Montserrat;-inkscape-font-specification:'Montserrat Heavy'"
           id="path2944" />
      </g>
    </g>
  </g>
</svg>
